<svg width="104" height="17" viewBox="0 0 104 17" fill="none" xmlns="http://www.w3.org/2000/svg">
<path d="M0.232 17V0.199999H2.272V17H0.232ZM5.64363 17V15.128L16.2276 2.072H5.71563V0.199999H18.7716V2.072L8.18763 15.128H18.6996V17H5.64363ZM33.7626 17L27.0186 0.199999H29.0586L35.8986 17H33.7626ZM20.1066 17L26.9466 0.199999H29.0106L22.2666 17H20.1066ZM23.3466 12.224V10.4H32.6826V12.224H23.3466Z" fill="#6E2D62"/>
<path d="M37.9568 17V0.199999H43.6448C44.7968 0.199999 45.8048 0.375999 46.6688 0.727999C47.5328 1.08 48.2048 1.616 48.6848 2.336C49.1648 3.04 49.4048 3.92 49.4048 4.976C49.4048 5.632 49.2368 6.24 48.9008 6.8C48.5808 7.344 48.1248 7.816 47.5328 8.216C48.3168 8.616 48.9168 9.152 49.3328 9.824C49.7648 10.48 49.9808 11.272 49.9808 12.2C49.9808 13.224 49.7488 14.096 49.2848 14.816C48.8208 15.536 48.1728 16.08 47.3408 16.448C46.5088 16.816 45.5328 17 44.4128 17H37.9568ZM41.1728 14.096H44.1008C44.8848 14.096 45.5008 13.904 45.9488 13.52C46.3968 13.12 46.6208 12.592 46.6208 11.936C46.6208 11.248 46.3728 10.712 45.8768 10.328C45.3808 9.928 44.7008 9.728 43.8368 9.728H41.1728V14.096ZM41.1728 7.04H43.7168C44.4368 7.04 45.0048 6.856 45.4208 6.488C45.8368 6.12 46.0448 5.6 46.0448 4.928C46.0448 4.256 45.8128 3.736 45.3488 3.368C44.8848 3 44.2528 2.816 43.4528 2.816H41.1728V7.04ZM52.6521 17V0.199999H63.2841V3.2H55.9401V7.016H62.2761V9.944H55.9401V14H63.3801V17H52.6521ZM66.7849 17V0.199999H70.0729V14H77.4649V17H66.7849ZM79.6756 17V0.199999H82.9636V14H90.3556V17H79.6756ZM92.5662 17V0.199999H103.198V3.2H95.8542V7.016H102.19V9.944H95.8542V14H103.294V17H92.5662Z" fill="#32002A"/>
</svg>
